<svg width="14" height="11" viewBox="0 0 14 11" fill="none" xmlns="http://www.w3.org/2000/svg">
<path d="M0.667969 2.66699L5.92797 6.17366C6.14708 6.31984 6.40457 6.39786 6.66797 6.39786C6.93137 6.39786 7.18886 6.31984 7.40797 6.17366L12.668 2.66699M2.0013 10.0003H11.3346C11.6883 10.0003 12.0274 9.85985 12.2774 9.6098C12.5275 9.35975 12.668 9.02061 12.668 8.66699V2.00033C12.668 1.6467 12.5275 1.30756 12.2774 1.05752C12.0274 0.807468 11.6883 0.666992 11.3346 0.666992H2.0013C1.64768 0.666992 1.30854 0.807468 1.05849 1.05752C0.808444 1.30756 0.667969 1.6467 0.667969 2.00033V8.66699C0.667969 9.02061 0.808444 9.35975 1.05849 9.6098C1.30854 9.85985 1.64768 10.0003 2.0013 10.0003Z" stroke="#9CA3AF" stroke-width="1.33333" stroke-linecap="round" stroke-linejoin="round"/>
</svg>
