<svg width="12" height="14" viewBox="0 0 12 14" fill="none" xmlns="http://www.w3.org/2000/svg">
<path d="M6.0013 8.66699V10.0003M2.0013 12.667H10.0013C10.3549 12.667 10.6941 12.5265 10.9441 12.2765C11.1942 12.0264 11.3346 11.6873 11.3346 11.3337V7.33366C11.3346 6.98004 11.1942 6.6409 10.9441 6.39085C10.6941 6.1408 10.3549 6.00033 10.0013 6.00033H2.0013C1.64768 6.00033 1.30854 6.1408 1.05849 6.39085C0.808444 6.6409 0.667969 6.98004 0.667969 7.33366V11.3337C0.667969 11.6873 0.808444 12.0264 1.05849 12.2765C1.30854 12.5265 1.64768 12.667 2.0013 12.667ZM8.66797 6.00033V3.33366C8.66797 2.62641 8.38702 1.94814 7.88692 1.44804C7.38682 0.947944 6.70855 0.666992 6.0013 0.666992C5.29406 0.666992 4.61578 0.947944 4.11568 1.44804C3.61559 1.94814 3.33464 2.62641 3.33464 3.33366V6.00033H8.66797Z" stroke="#9CA3AF" stroke-width="1.33333" stroke-linecap="round" stroke-linejoin="round"/>
</svg>
