<svg width="14" height="14" viewBox="0 0 14 14" fill="none" xmlns="http://www.w3.org/2000/svg">
<path d="M10.668 4.66699V6.66699M10.668 6.66699V8.66699M10.668 6.66699H12.668M10.668 6.66699H8.66797M7.33464 3.33366C7.33464 4.0409 7.05368 4.71918 6.55359 5.21928C6.05349 5.71937 5.37521 6.00033 4.66797 6.00033C3.96072 6.00033 3.28245 5.71937 2.78235 5.21928C2.28225 4.71918 2.0013 4.0409 2.0013 3.33366C2.0013 2.62641 2.28225 1.94814 2.78235 1.44804C3.28245 0.947944 3.96072 0.666992 4.66797 0.666992C5.37521 0.666992 6.05349 0.947944 6.55359 1.44804C7.05368 1.94814 7.33464 2.62641 7.33464 3.33366ZM0.667969 12.0003C0.667969 10.9395 1.0894 9.92204 1.83954 9.1719C2.58969 8.42175 3.6071 8.00033 4.66797 8.00033C5.72883 8.00033 6.74625 8.42175 7.4964 9.1719C8.24654 9.92204 8.66797 10.9395 8.66797 12.0003V12.667H0.667969V12.0003Z" stroke="black" stroke-width="1.33333" stroke-linecap="round" stroke-linejoin="round"/>
</svg>
