<svg width="27" height="24" viewBox="0 0 27 24" fill="none" xmlns="http://www.w3.org/2000/svg">
<path d="M3.08942 3.09039C2.53226 3.64755 2.09029 4.30898 1.78876 5.03694C1.48723 5.7649 1.33203 6.54512 1.33203 7.33306C1.33203 8.121 1.48723 8.90122 1.78876 9.62918C2.09029 10.3571 2.53226 11.0186 3.08942 11.5757L13.3321 21.8184L23.5747 11.5757C24.7 10.4505 25.3321 8.92437 25.3321 7.33306C25.3321 5.74175 24.7 4.21562 23.5747 3.09039C22.4495 1.96517 20.9234 1.33302 19.3321 1.33302C17.7408 1.33302 16.2146 1.96517 15.0894 3.09039L13.3321 4.84773L11.5748 3.09039C11.0176 2.53323 10.3562 2.09127 9.6282 1.78974C8.90024 1.4882 8.12002 1.33301 7.33208 1.33301C6.54415 1.33301 5.76392 1.4882 5.03597 1.78974C4.30801 2.09127 3.64657 2.53323 3.08942 3.09039Z" stroke="black" stroke-width="2.66667" stroke-linecap="round" stroke-linejoin="round"/>
</svg>
