<svg width="27" height="27" viewBox="0 0 27 27" fill="none" xmlns="http://www.w3.org/2000/svg">
<path d="M9.23418 13.2352L11.9008 15.9018L17.2342 10.5685M7.68084 3.49782C8.63725 3.42148 9.54522 3.04542 10.2755 2.42315C11.1007 1.71951 12.1497 1.33301 13.2342 1.33301C14.3187 1.33301 15.3676 1.71951 16.1928 2.42315C16.9231 3.04542 17.8311 3.42148 18.7875 3.49782C19.8685 3.58382 20.8835 4.05225 21.6503 4.81905C22.4171 5.58585 22.8855 6.60082 22.9715 7.68182C23.0478 8.63823 23.4239 9.54619 24.0462 10.2765C24.7498 11.1017 25.1363 12.1507 25.1363 13.2352C25.1363 14.3196 24.7498 15.3686 24.0462 16.1938C23.4239 16.9241 23.0478 17.8321 22.9715 18.7885C22.8855 19.8695 22.4171 20.8845 21.6503 21.6513C20.8835 22.4181 19.8685 22.8865 18.7875 22.9725C17.8311 23.0488 16.9231 23.4249 16.1928 24.0472C15.3676 24.7508 14.3187 25.1373 13.2342 25.1373C12.1497 25.1373 11.1007 24.7508 10.2755 24.0472C9.54522 23.4249 8.63725 23.0488 7.68084 22.9725C6.59984 22.8865 5.58487 22.4181 4.81807 21.6513C4.05128 20.8845 3.58284 19.8695 3.49684 18.7885C3.42051 17.8321 3.04444 16.9241 2.42218 16.1938C1.71854 15.3686 1.33203 14.3196 1.33203 13.2352C1.33203 12.1507 1.71854 11.1017 2.42218 10.2765C3.04444 9.54619 3.42051 8.63823 3.49684 7.68182C3.58284 6.60082 4.05128 5.58585 4.81807 4.81905C5.58487 4.05225 6.59984 3.58382 7.68084 3.49782Z" stroke="black" stroke-width="2.66667" stroke-linecap="round" stroke-linejoin="round"/>
</svg>
