<svg width="28" height="27" viewBox="0 0 28 27" fill="none" xmlns="http://www.w3.org/2000/svg">
<path d="M12.5173 2.25401C12.9173 1.02601 14.6546 1.02601 15.0533 2.25401L17.0786 8.48601C17.1658 8.75333 17.3352 8.98625 17.5627 9.15148C17.7902 9.31671 18.0641 9.4058 18.3453 9.40601H24.8986C26.1906 9.40601 26.7266 11.0593 25.6826 11.8193L20.3813 15.67C20.1536 15.8356 19.9841 16.0689 19.8971 16.3367C19.8102 16.6045 19.8102 16.8929 19.8973 17.1607L21.9213 23.3927C22.3213 24.622 20.9146 25.6433 19.8706 24.8833L14.5693 21.0327C14.3414 20.867 14.067 20.7778 13.7853 20.7778C13.5036 20.7778 13.2291 20.867 13.0013 21.0327L7.69995 24.8833C6.65595 25.6433 5.24928 24.6207 5.64928 23.3927L7.67328 17.1607C7.76032 16.8929 7.76037 16.6045 7.67343 16.3367C7.58648 16.0689 7.41701 15.8356 7.18928 15.67L1.88795 11.8193C0.842617 11.0593 1.38128 9.40601 2.67195 9.40601H9.22395C9.50535 9.40608 9.77955 9.31713 10.0073 9.15187C10.2351 8.98662 10.4047 8.75354 10.4919 8.48601L12.5173 2.25401Z" stroke="black" stroke-width="2.66667" stroke-linecap="round" stroke-linejoin="round"/>
</svg>
