<svg width="27" height="27" viewBox="0 0 27 27" fill="none" xmlns="http://www.w3.org/2000/svg">
<path d="M13.332 1.33301V2.66634M13.332 23.9997V25.333M25.332 13.333H23.9987M2.66536 13.333H1.33203M21.8174 21.8183L20.8747 20.8757M5.78936 5.79034L4.8467 4.84767M21.8174 4.84767L20.8747 5.79034M5.78936 20.8757L4.8467 21.8183M18.6654 13.333C18.6654 14.7475 18.1035 16.1041 17.1033 17.1042C16.1031 18.1044 14.7465 18.6663 13.332 18.6663C11.9175 18.6663 10.561 18.1044 9.5608 17.1042C8.5606 16.1041 7.9987 14.7475 7.9987 13.333C7.9987 11.9185 8.5606 10.562 9.5608 9.56177C10.561 8.56158 11.9175 7.99967 13.332 7.99967C14.7465 7.99967 16.1031 8.56158 17.1033 9.56177C18.1035 10.562 18.6654 11.9185 18.6654 13.333Z" stroke="black" stroke-width="2.66667" stroke-linecap="round" stroke-linejoin="round"/>
</svg>
