<svg width="27" height="27" viewBox="0 0 27 27" fill="none" xmlns="http://www.w3.org/2000/svg">
<path d="M9.56136 18.8957C10.5615 17.8958 11.9178 17.3341 13.332 17.3341C14.7462 17.3341 16.1026 17.8958 17.1027 18.8957M9.33203 10.6663H9.34537M17.332 10.6663H17.3454M25.332 13.333C25.332 14.9089 25.0216 16.4693 24.4186 17.9252C23.8155 19.3811 22.9316 20.704 21.8173 21.8183C20.703 22.9326 19.3801 23.8165 17.9242 24.4196C16.4683 25.0226 14.9079 25.333 13.332 25.333C11.7562 25.333 10.1957 25.0226 8.73983 24.4196C7.28392 23.8165 5.96105 22.9326 4.84675 21.8183C3.73245 20.704 2.84853 19.3811 2.24548 17.9252C1.64242 16.4693 1.33203 14.9089 1.33203 13.333C1.33203 10.1504 2.59631 7.09816 4.84675 4.84773C7.09719 2.59729 10.1494 1.33301 13.332 1.33301C16.5146 1.33301 19.5669 2.59729 21.8173 4.84773C24.0677 7.09816 25.332 10.1504 25.332 13.333Z" stroke="black" stroke-width="2.66667" stroke-linecap="round" stroke-linejoin="round"/>
</svg>
